#!OML:ASF E:/inclinewalkrobotboard/Project1/Captureday1/Session1/subject1.ASF
:FULLY-SPECIFIED
:DEGREES
176
root 0 0 0 6.819538780859984 22.945829119024832 -10.521522102875151
lowerback 7.821813806150818 2.1306791960831193 -1.2126555344749164
upperback 0.6635964206730982 2.5999716893738314 -1.8455045370146683
thorax -3.7723968379872512 1.3598007420266436 -1.3890082638619208
lowerneck -10.572524762340855 -6.519900926314209 -8.108430593083124
upperneck 5.4060351610381945 -8.269152105074891 6.678055047644502
head 4.555321293941661 -3.818237981275409 2.95936432676874
rclavicle -1.0457973663654214E-14 2.7356934455037654E-16
rhumerus 4.621188161796575 -13.301807336698138 -66.87037579214044
rradius 19.751069435654323
rwrist 57.170526211106775
rhand -7.781815831187902 21.839867868146026
rfingers 7.125019999999914
rthumb 18.126624962204225 -7.856962130747277
lclavicle -7.304335221062476E-15 7.445131285070803E-15
lhumerus -24.261247594093582 5.254257424316915 77.08303573189549
lradius 37.54062843070984
lwrist -37.038028099948065
lhand -9.676156138276676 14.611641323983289
lfingers 7.050554744419005
lthumb 16.004024983413487 70.13964435183705
rfemur -14.560837453815486 0.08965067671206484 22.932637712589308
rtibia 72.70303956669055
rfoot 10.726353155646802 -2.2069530995834334
rtoes 13.584224556050176
lfemur -3.0963795944635226 -2.2548763947606583 -29.090304023714246
ltibia 24.206591425886806
lfoot -17.8754489476732 2.8536737884734826
ltoes 9.750916157915178
177
root 0 0 0 5.627209211503311 21.95978507892107 -10.259050916889995
lowerback 7.396728949781709 1.9906262610185619 -1.394055809597591
upperback 0.5408027422628741 2.421739263941477 -1.8347262222640324
thorax -3.677351506376791 1.268598780914248 -1.2508694254479227
lowerneck -10.79800919912807 -6.749360505105271 -8.14483405554789
upperneck 5.844302361656752 -8.630575074919491 7.0184272174038
head 4.758024119361223 -3.980738451279409 3.046651447214324
rclavicle -1.0427910281587707E-14 2.7530165881205003E-16
rhumerus 4.455984220779894 -13.190188518938049 -66.9794141030608
rradius 19.606600808131148
rwrist 57.28163117444019
rhand -7.74481921624696 21.85684446833913
rfingers 7.125019999999914
rthumb 18.16261782425852 -7.84028499561925
lclavicle -7.187351429138533E-15 7.564625773389735E-15
lhumerus -24.55305809776433 5.08130896543225 77.33971202482452
lradius 37.503094891589875
lwrist -37.17665107402736
lhand -9.665683752129496 14.606889081553646
lfingers 7.050169827982194
lthumb 16.01295985928061 69.78944221149693
rfemur -14.694678642715528 0.07461056728471327 22.905891887503092
rtibia 72.58379281467955
rfoot 10.691998659862922 -2.226476076630183
rtoes 13.465162458942762
lfemur -2.221639288372602 -2.275208677921003 -29.242915209750358
ltibia 24.000359931492774
lfoot -17.98310991175969 2.749520611912571
ltoes 9.363469639071717
178
root 0 0 0 4.343093771662247 20.686815510277594 -9.942402167435334
lowerback 6.957043749180209 1.8493137772669292 -1.5655524847544788
upperback 0.41238441634086875 2.2450772359164635 -1.8185601767508728
thorax -3.577085431484753 1.1777530743208253 -1.1140865965761082
lowerneck -11.034076711514832 -6.959870937137794 -8.187854327447868
upperneck 6.31147326704283 -8.968534007522774 7.399538515768193
head 4.969221318383671 -4.1317065480489665 3.1499197398604015
rclavicle -1.0401724177607239E-14 2.845015345717506E-16
rhumerus 4.296598194922711 -13.083276341551242 -67.08445224853243
rradius 19.459978217390073
rwrist 57.38694445382765
rhand -7.704452068215019 21.872502781908608
rfingers 7.125019999999914
rthumb 18.20173796240857 -7.824715797701632
lclavicle -7.0331407105866905E-15 7.74027546612031E-15
lhumerus -24.843659358394355 4.866088821607459 77.62443964873425
lradius 37.53741021614161
lwrist -37.31920526874963
lhand -9.686322879228452 14.595649527672911
lfingers 7.0493668718302125
lthumb 15.990498738903046 69.62342174463456
rfemur -14.701991674803192 0.10146389735634465 22.898969157889848
rtibia 72.40735666802405
rfoot 10.710365399441027 -2.216374456438057
rtoes 13.430660774002513
lfemur -1.379093781755845 -2.2939808283620615 -29.38591632012912
ltibia 23.798986017595155
lfoot -18.10213392745643 2.6609631939825436
ltoes 8.981767397402862
179
root 0 0 0 3.1941133778569006 19.226018942996102 -9.587484267642544
lowerback 6.555992242701864 1.7313061453978689 -1.7109330347463558
upperback 0.2937661546145529 2.0997167401445034 -1.7995099101571097
thorax -3.482939176040081 1.102603665490148 -0.9943359674525403
lowerneck -11.24116401778674 -7.106056411511759 -8.242600506303495
upperneck 6.743412040434377 -9.219029534822914 7.770663627183199
head 5.15437684520333 -4.240862507487314 3.257681691561316
rclavicle -1.0372573630111434E-14 2.9569729713185454E-16
rhumerus 4.14196624165268 -12.981425441813508 -67.18672240820848
rradius 19.31928419425857
rwrist 57.48139819662077
rhand -7.662648419616039 21.8843665603726
rfingers 7.125019999999913
rthumb 18.242143875616417 -7.812645716328966
lclavicle -6.835980337599895E-15 7.94823539169779E-15
lhumerus -25.122296711026017 4.60050972833 77.93317005562031
lradius 37.67199504622964
lwrist -37.44226577251301
lhand -9.73697878591438 14.581739624166943
lfingers 7.048130167003962
lthumb 15.937609280646647 69.68791487570843
rfemur -14.607177150848797 0.1611652888371875 22.90895953934715
rtibia 72.19902017214974
rfoot 10.768669574211856 -2.1831224794586994
rtoes 13.475259370491594
lfemur -0.5872977995623607 -2.3108068473340952 -29.517297180355975
ltibia 23.59768261064954
lfoot -18.237133875275344 2.592054470266773
ltoes 8.606217776033805
180
root 0 0 0 1.9203912249054658 16.986634746127958 -9.049545723096214
lowerback 6.089643862795299 1.6165317025831625 -1.867183628881325
upperback 0.14881764092073935 1.9604792733022092 -1.7744801919212527
thorax -3.3732232392580146 1.0300940257726319 -0.864340863704707
lowerneck -11.472196847408286 -7.188308710348011 -8.340246482682938
upperneck 7.196825077803297 -9.398158307920587 8.230748780366673
head 5.336958399591801 -4.311538302603026 3.403722947513834
rclavicle -1.0322324564583773E-14 3.115606033851812E-16
rhumerus 3.936174100481445 -12.84927980603789 -67.32444435715713
rradius 19.146933655964645
rwrist 57.586493069168824
rhand -7.606974655603308 21.889720325805904
rfingers 7.125019999999913
rthumb 18.295857889312927 -7.806473992354245
lclavicle -6.532998719026311E-15 8.25398953192288E-15
lhumerus -25.476237015270545 4.119193452384351 78.40246168392054
lradius 38.07887714548169
lwrist -37.528904416852455
lhand -9.858610211809665 14.570805662028935
lfingers 7.04591400231357
lthumb 15.813088588816521 70.25107429311589
rfemur -14.348717016493449 0.28424733457972806 22.9464536011997
rtibia 71.90403088326539
rfoot 10.884969576576221 -2.1131646635004024
rtoes 13.669378374165353
lfemur 0.500148696040652 -2.334330237296169 -29.691258999053233
ltibia 23.277887272658855
lfoot -18.45398373585977 2.510408426955202
ltoes 8.039724741635577
